<?xml version="1.0" encoding="utf-8"?>
<!-- Generator: Adobe Illustrator 24.1.3, SVG Export Plug-In . SVG Version: 6.00 Build 0)  -->
<svg version="1.1" id="Layer_1" xmlns="http://www.w3.org/2000/svg" xmlns:xlink="http://www.w3.org/1999/xlink" x="0px" y="0px"
	 viewBox="0 0 90 90" style="enable-background:new 0 0 90 90;" xml:space="preserve">
<style type="text/css">
	.st0{fill:#00a69c;}
	.st1{fill:#00A69C;}
</style>
<g>
	<path class="st0" d="M28.6,26.7c-10.1,8.9-11.1,24.2-2.2,34.3c5,5.7,12.1,8.5,19.1,8.2v-5.9c-5.4,0.3-10.9-1.8-14.7-6.2
		c-6.7-7.7-6-19.3,1.7-26c3.7-3.3,8.4-4.8,13-4.6v-5.9C39.6,20.4,33.5,22.4,28.6,26.7z"/>
	<path class="st0" d="M45.6,71.8C37.8,72.1,30,69,24.5,62.7c-9.8-11.2-8.7-28.2,2.4-38C32.2,20,39,17.8,45.6,18v-6.2L39.8,12
		l-4.2-7.1c-3.1,0.7-6.1,1.8-9,3.2l1.2,8.2l-6.5,5l-7.6-3.3c-2.1,2.4-3.9,5-5.4,7.8l5.8,5.9l-2.3,7.8l-8,1.8c-0.1,1.6-0.2,3.3-0.2,5
		c0.1,1.5,0.2,3,0.4,4.5l8.1,1.4l2.7,7.7L9.5,66c1.6,2.7,3.6,5.3,5.8,7.5l7.4-3.7l6.7,4.6l-0.8,8.2c2.9,1.2,5.9,2.1,9.1,2.7l3.8-7.3
		l4-0.1V71.8z"/>
</g>
<g>
	<g>
		<path class="st1" d="M62.2,26.7c10.1,8.9,11.1,24.2,2.2,34.3c-5,5.7-12.1,8.5-19.1,8.2v-5.9c5.4,0.3,10.9-1.8,14.7-6.2
			c6.7-7.7,6-19.3-1.7-26c-3.7-3.3-8.4-4.8-13-4.6v-5.9C51.2,20.4,57.3,22.4,62.2,26.7z"/>
		<path class="st1" d="M45.2,71.8c7.8,0.3,15.6-2.8,21.1-9.1c9.8-11.2,8.7-28.2-2.4-38C58.6,20,51.9,17.8,45.2,18v-6.2l5.8,0.1
			l4.2-7.1c3.1,0.7,6.1,1.8,9,3.2L63,16.2l6.5,5l7.6-3.3c2.1,2.4,3.9,5,5.4,7.8l-5.8,5.9l2.3,7.8l8,1.8c0.1,1.6,0.2,3.3,0.2,5
			c-0.1,1.5-0.2,3-0.4,4.5l-8.1,1.4l-2.7,7.7l5.4,6.2c-1.6,2.7-3.6,5.3-5.8,7.5l-7.4-3.7l-6.7,4.6l0.8,8.2c-2.9,1.2-5.9,2.1-9.1,2.7
			L49.3,78l-4-0.1V71.8z"/>
	</g>
</g>
</svg>
