<?xml version="1.0" encoding="utf-8"?>
<!-- Generator: Adobe Illustrator 25.3.1, SVG Export Plug-In . SVG Version: 6.00 Build 0)  -->
<svg version="1.1" id="Layer_1" xmlns="http://www.w3.org/2000/svg" xmlns:xlink="http://www.w3.org/1999/xlink" x="0px" y="0px"
	 viewBox="0 0 96 96" style="enable-background:new 0 0 96 96;" xml:space="preserve">
<style type="text/css">
	.st0{fill:#086A39;}
	.st1{fill:url(#SVGID_1_);}
	.st2{fill:#E6E7E8;}
	.st3{clip-path:url(#SVGID_3_);fill:url(#SVGID_4_);}
	.st4{fill:#006E5B;}
	.st5{fill:#155629;}
	.st6{fill:none;stroke:#155629;stroke-width:2;}
	.st7{fill:#FFFFFF;}
</style>
<g>
	<g>
		<g>
			<path class="st0" d="M-255.4,54.5c-12.8,3.9-26.5-3.3-30.5-16.2l0.9-0.3c3.9,12.4,17,19.3,29.4,15.6
				c12.4-3.8,19.3-16.9,15.5-29.3s-17-19.4-29.3-15.6l-0.3-0.9c12.9-4,26.5,3.3,30.5,16.2C-235.2,36.8-242.5,50.5-255.4,54.5z"/>
		</g>
		<g>
			
				<linearGradient id="SVGID_1_" gradientUnits="userSpaceOnUse" x1="-288.9966" y1="264.7091" x2="-284.8581" y2="264.7091" gradientTransform="matrix(0.9559 -0.2937 -0.2937 -0.9559 82.5206 177.029)">
				<stop  offset="0.7317" style="stop-color:#A99632"/>
				<stop  offset="1" style="stop-color:#A99632"/>
			</linearGradient>
			<circle class="st1" cx="-269.6" cy="8.3" r="2.1"/>
		</g>
		<g>
			<path class="st2" d="M-268.3,12.5c-10.3,3.2-16.1,14.1-12.9,24.4c3.2,10.3,14.1,16.1,24.4,12.9c10.3-3.2,16.1-14.1,12.9-24.4
				C-247,15.1-258,9.3-268.3,12.5z M-258.6,43.8c-7,2.1-14.4-1.8-16.5-8.7c-2.1-7,1.8-14.4,8.7-16.5c7-2.1,14.4,1.8,16.5,8.7
				C-247.8,34.2-251.7,41.6-258.6,43.8z"/>
		</g>
		<path class="st0" d="M-244.2,25.4c-0.3-1.1-0.8-2.2-1.3-3.2c-0.2-0.1-0.5-0.1-0.7,0l-2.7,0.8c-0.9-1.4-2-2.6-3.2-3.6l0,0l1.3-2.5
			c0.1-0.2,0.2-0.5,0.1-0.8c-1.8-1.4-3.8-2.5-5.9-3.2c-0.3,0.1-0.5,0.3-0.6,0.5l-1.4,2.5c-1.6-0.4-3.3-0.5-4.9-0.4l0,0l-0.8-2.7
			c-0.1-0.3-0.4-0.8-0.7-1c-1,0.1-2.3,0.4-3.3,0.7l1.9,6c3.6-1,7-0.9,9.7,0.9c3,1.5,5.3,4.1,6.4,7.5c0,0.1,0.1,0.3,0.1,0.4l0,0l0,0
			l0,0l0,0c0,0.1,0.1,0.3,0.1,0.4c1,3.4,0.6,6.9-1.1,9.8c-1.3,3-4.5,4.6-7.5,6.2l1.9,6c1-0.3,2.3-0.8,3.2-1.3c0.2-0.3,0.1-0.8,0-1.2
			l-0.8-2.7l0,0c1.4-0.8,2.7-1.8,3.8-3.1l2.6,1.3c0.3,0.1,0.6,0.2,0.8,0.1c1.4-1.8,2.4-3.8,3.1-6c-0.1-0.2-0.3-0.4-0.5-0.6l-2.5-1.3
			l0,0c0.4-1.6,0.6-3.1,0.5-4.8l2.7-0.8c0.2-0.1,0.4-0.2,0.6-0.4c-0.1-1.1-0.4-2.2-0.7-3.3C-244.2,25.6-244.2,25.5-244.2,25.4
			C-244.2,25.5-244.2,25.4-244.2,25.4z"/>
		<g>
			<g>
				<defs>
					<path id="SVGID_2_" d="M-258.6,43.8c-7,2.1-14.4-1.8-16.5-8.7c-2.1-7,1.8-14.4,8.7-16.5l-1.9-6c-10.3,3.2-16.1,14.1-12.9,24.4
						c3.2,10.3,14.1,16.1,24.4,12.9L-258.6,43.8z"/>
				</defs>
				<clipPath id="SVGID_3_">
					<use xlink:href="#SVGID_2_"  style="overflow:visible;"/>
				</clipPath>
				
					<linearGradient id="SVGID_4_" gradientUnits="userSpaceOnUse" x1="-305.9022" y1="240.8847" x2="-286.2954" y2="240.8847" gradientTransform="matrix(0.9559 -0.2937 -0.2937 -0.9559 82.5206 177.029)">
					<stop  offset="0.7317" style="stop-color:#A99632"/>
					<stop  offset="1" style="stop-color:#A99632"/>
				</linearGradient>
				<path class="st3" d="M-273,25.4l3.4-1.1l3.8-4.5l-1.8-6.9c-0.4,0,0.2-0.7-0.2-0.8l-3,6.6c-0.3,0.5-0.8,1-1.4,1.1l-6.9,2.1
					c-0.1,0.1-0.1,0.2-0.2,0.3l2,6.7c0.1,0.5,0.1,1-0.1,1.4l-3.3,6.3c0,0.1,0,0.1,0.1,0.2c0,0.1,0,0.1,0.1,0.2l6.3,3.3
					c0.4,0.2,0.8,0.6,0.9,1.1l2,6.7c0.1,0.1,0.2,0.1,0.3,0.2l6.9-2.1c0.6-0.2,1.2-0.1,1.8,0.2l5.7,3.4c0.1-0.1,0.1-0.1,0.2-0.2
					l-2.1-5.8l-6-2.6l-3.3,1.2l-1.1-3.6l-5.5-3.7l2.4-6.1L-273,25.4z"/>
			</g>
		</g>
	</g>
	<g>
		<path class="st4" d="M-269.1,71.6c-0.6,0.8-1.4,1.2-2.6,1.2c-1.2,0-2-0.4-2.6-1.2c-0.5-0.7-0.7-1.5-0.7-2.6c0-1,0.2-1.7,0.5-2.3
			h-0.9c-0.9,0-1.5,0.1-1.9,0.4s-0.5,0.8-0.5,1.6v7l-1.6,0.5v-7.5c0-1.3,0.3-2.2,1-2.7c0.6-0.5,1.5-0.7,2.7-0.7h4
			c1.1,0,2,0.4,2.6,1.2c0.5,0.7,0.7,1.5,0.7,2.6C-268.4,70.1-268.6,70.9-269.1,71.6z M-273.3,69c0,1.6,0.6,2.4,1.7,2.4
			c1.1,0,1.7-0.8,1.7-2.4s-0.6-2.4-1.7-2.4C-272.7,66.7-273.3,67.5-273.3,69z"/>
		<path class="st4" d="M-264.7,72.9c-0.7,0-1.3-0.2-1.7-0.6c-0.3-0.4-0.5-0.9-0.5-1.6v-8.3l1.6-0.5v8.7c0,0.5,0.3,0.8,0.8,0.8h1.6
			v1.4L-264.7,72.9L-264.7,72.9z"/>
		<path class="st4" d="M-251.9,72.9c-1,0-1.8-0.4-2.3-1.1c-0.2,0.7-0.6,1.3-1.2,1.7c-0.6,0.4-1.3,0.6-2.1,0.6c-0.8,0-1.5-0.2-2-0.5
			c-0.6-0.4-1-0.9-1.2-1.5c-0.5,0.6-1.2,0.8-2.1,0.8h-0.5v-1.4h0.4c1.2,0,1.9-0.5,2-1.6c0.3-2,1.4-3,3.4-3c1.1,0,1.9,0.3,2.5,0.8
			c0.5,0.4,0.8,1.2,1,2.2c0.2,1.1,0.9,1.7,2.1,1.7h0.3V73L-251.9,72.9L-251.9,72.9z M-257.5,68.2c-1.2,0-1.8,0.8-1.8,2.3
			s0.6,2.3,1.8,2.3c1.2,0,1.8-0.8,1.8-2.3C-255.7,69-256.3,68.2-257.5,68.2z"/>
		<path class="st4" d="M-248.4,72.1c-0.6,0.6-1.4,0.8-2.3,0.8h-1.3v-1.4h1.2c1.1,0,1.7-0.6,1.7-1.7v-4.1l1.6-0.5v4.7
			C-247.5,70.8-247.8,71.5-248.4,72.1z M-250.5,63.7c-0.2,0-0.4-0.1-0.6-0.3s-0.3-0.4-0.3-0.6c0-0.2,0.1-0.4,0.3-0.6
			s0.4-0.3,0.6-0.3s0.4,0.1,0.6,0.3s0.3,0.4,0.3,0.6c0,0.2-0.1,0.4-0.3,0.6C-250.1,63.7-250.3,63.7-250.5,63.7z M-248.3,63.7
			c-0.2,0-0.4-0.1-0.6-0.3s-0.3-0.4-0.3-0.6c0-0.2,0.1-0.4,0.3-0.6s0.4-0.3,0.6-0.3s0.5,0.1,0.6,0.3c0.2,0.2,0.3,0.4,0.3,0.6
			c0,0.2-0.1,0.4-0.3,0.6C-247.8,63.7-248,63.7-248.3,63.7z"/>
		<path class="st4" d="M-246.9,76.2l0.4-0.6h0.5v-0.3c0-0.8,0.4-1.2,1.1-1.2c0.3,0,0.5,0.1,0.8,0.4l-0.4,0.5
			c-0.1-0.2-0.3-0.3-0.5-0.3c-0.3,0-0.4,0.2-0.4,0.6v0.3h1.3v0.6H-246.9z M-246,72.9V62.5l1.6-0.5v11L-246,72.9L-246,72.9z"/>
		<path class="st4" d="M-298,89.9c-1.1,0-1.8-0.3-2.1-1c-0.3,0.7-1,1-2.1,1c-1.8,0-2.7-1.1-2.7-3.2s0.9-3.1,2.7-3.1h2.9v3.8
			c0,1,0.5,1.4,1.4,1.4h0.8V90h-0.9V89.9z M-302.1,84.6c-0.6,0-1,0.2-1.2,0.6c-0.2,0.3-0.3,0.8-0.3,1.5s0.1,1.2,0.3,1.5
			c0.2,0.4,0.6,0.6,1.2,0.6c0.6,0,1-0.2,1.2-0.6c0.2-0.3,0.3-0.8,0.3-1.5v-2.1H-302.1z M-302.7,82.3c-0.2,0-0.4-0.1-0.5-0.2
			c-0.1-0.1-0.2-0.3-0.2-0.5s0.1-0.4,0.2-0.5c0.1-0.1,0.3-0.2,0.5-0.2c0.2,0,0.4,0.1,0.5,0.2c0.2,0.1,0.3,0.2,0.3,0.4
			s-0.1,0.4-0.2,0.5C-302.3,82.2-302.4,82.3-302.7,82.3z M-300.7,82.3c-0.2,0-0.4-0.1-0.5-0.2s-0.2-0.3-0.2-0.5s0.1-0.4,0.2-0.5
			s0.3-0.2,0.5-0.2c0.2,0,0.4,0.1,0.5,0.2s0.2,0.3,0.2,0.5s-0.1,0.4-0.2,0.5C-300.4,82.2-300.5,82.3-300.7,82.3z"/>
		<path class="st4" d="M-292.4,89.9c-0.8,0-1.5-0.3-2-0.8c-0.5,0.5-1.2,0.8-2,0.8h-1v-1.2h0.9c0.9,0,1.4-0.5,1.4-1.4v-3.4l1.3-0.4
			v3.8c0,0.9,0.5,1.4,1.4,1.4h0.8v1.2H-292.4z M-295.4,92.6c-0.2,0-0.4-0.1-0.5-0.2s-0.2-0.3-0.2-0.5s0.1-0.4,0.2-0.5
			s0.3-0.2,0.5-0.2c0.2,0,0.4,0.1,0.5,0.2s0.2,0.3,0.2,0.5s-0.1,0.4-0.2,0.5S-295.2,92.6-295.4,92.6z M-293.5,92.6
			c-0.2,0-0.4-0.1-0.5-0.2s-0.2-0.3-0.2-0.5s0.1-0.4,0.2-0.5c0.1-0.1,0.3-0.2,0.5-0.2c0.2,0,0.4,0.1,0.5,0.2s0.2,0.3,0.2,0.5
			s-0.1,0.4-0.2,0.5S-293.3,92.6-293.5,92.6z"/>
		<path class="st4" d="M-288.9,89.2c-0.5,0.5-1.1,0.7-1.9,0.7h-1.1v-1.2h1c0.9,0,1.4-0.5,1.4-1.4v-3.4l1.3-0.4v3.9
			C-288.2,88.1-288.4,88.7-288.9,89.2z M-290.7,82.3c-0.2,0-0.4-0.1-0.5-0.2s-0.2-0.3-0.2-0.5s0.1-0.4,0.2-0.5s0.3-0.2,0.5-0.2
			c0.2,0,0.4,0.1,0.5,0.2s0.2,0.3,0.2,0.5s-0.1,0.4-0.2,0.5S-290.5,82.3-290.7,82.3z M-288.8,82.3c-0.2,0-0.4-0.1-0.5-0.2
			s-0.2-0.3-0.2-0.5s0.1-0.4,0.2-0.5s0.3-0.2,0.5-0.2s0.4,0.1,0.5,0.2s0.2,0.3,0.2,0.5s-0.1,0.4-0.2,0.5S-288.6,82.3-288.8,82.3z"/>
		<path class="st4" d="M-287,89.9v-8.7l1.3-0.4v9.1H-287z"/>
		<path class="st4" d="M-284.4,89.9l0.8-1.2h3.5V86c0-0.9-0.5-1.4-1.5-1.4c-0.8,0-1.4,0.4-1.9,1.2v-1.4c0.6-0.6,1.3-0.8,1.9-0.8
			c0.8,0,1.5,0.2,2,0.7c0.5,0.4,0.8,1,0.8,1.8v2.8h1.9v1.2h-7.5V89.9z M-280.9,82c-0.1,0.1-0.3,0.2-0.5,0.2s-0.4-0.1-0.5-0.2
			s-0.2-0.3-0.2-0.5s0.1-0.4,0.2-0.5s0.3-0.2,0.5-0.2s0.4,0.1,0.5,0.2s0.2,0.3,0.2,0.5C-280.7,81.7-280.7,81.9-280.9,82z"/>
		<path class="st4" d="M-274.4,89.2c-0.5,0.5-1.1,0.7-1.9,0.7h-0.9v-1.2h0.8c0.9,0,1.4-0.5,1.4-1.4v-6.1l1.3-0.4v6.6
			C-273.6,88.1-273.9,88.7-274.4,89.2z"/>
		<path class="st4" d="M-272.4,89.9v-8.7l1.3-0.4v9.1H-272.4z"/>
		<path class="st4" d="M-258.1,89.2c-0.5,0.4-1.1,0.7-1.9,0.7h-5c-0.8,0-1.4-0.2-1.8-0.7c-0.5-0.4-0.7-1-0.7-1.8V86l1.3-1.4v2.6
			c0,0.9,0.5,1.4,1.4,1.4h4.8c0.9,0,1.4-0.5,1.4-1.4v-3.5l1.3-0.4v3.9C-257.3,88.2-257.6,88.8-258.1,89.2z M-262.9,84.2
			c-0.1,0.1-0.3,0.2-0.5,0.2s-0.4-0.1-0.5-0.2s-0.2-0.3-0.2-0.5s0.1-0.4,0.2-0.5s0.3-0.2,0.5-0.2s0.4,0.1,0.5,0.2s0.2,0.3,0.2,0.5
			S-262.7,84.1-262.9,84.2z M-261,84.2c-0.1,0.1-0.3,0.2-0.5,0.2c-0.2,0-0.4-0.1-0.5-0.2c-0.1-0.1-0.2-0.3-0.2-0.5s0.1-0.4,0.2-0.5
			s0.3-0.2,0.5-0.2c0.2,0,0.4,0.1,0.5,0.2c0.1,0.1,0.2,0.3,0.2,0.5S-260.8,84.1-261,84.2z"/>
		<path class="st4" d="M-254.3,89.9c-0.6,0-1.1-0.2-1.4-0.5s-0.5-0.8-0.5-1.3v-6.9l1.3-0.4v7.3c0,0.5,0.2,0.7,0.7,0.7h1.3V90
			L-254.3,89.9L-254.3,89.9z"/>
		<path class="st4" d="M-246.3,88.9c-0.5,0.6-1.2,1-2.2,1c-0.8,0-1.5-0.3-2-0.8c-0.5,0.5-1.1,0.8-2.1,0.8h-0.6v-1.2h0.6
			c0.9,0,1.4-0.5,1.4-1.4v-0.5c0-0.8,0.2-1.5,0.6-2.1c0.5-0.6,1.2-0.9,2.2-0.9s1.7,0.3,2.2,0.9c0.4,0.5,0.6,1.2,0.6,2.1
			C-245.7,87.7-245.9,88.4-246.3,88.9z M-248.4,85c-0.9,0-1.4,0.6-1.4,1.9s0.5,1.9,1.4,1.9c0.9,0,1.4-0.6,1.4-1.9
			S-247.5,85-248.4,85z"/>
		<path class="st4" d="M-244.5,89.9l0.8-1.2h3.5V86c0-0.9-0.5-1.4-1.5-1.4c-0.8,0-1.4,0.4-1.9,1.2v-1.4c0.6-0.6,1.3-0.8,1.9-0.8
			c0.8,0,1.5,0.2,2,0.7c0.5,0.4,0.8,1,0.8,1.8v2.8h2v1.2h-7.6V89.9z"/>
		<path class="st4" d="M-237.3,89.9v-1.2h6.4v-0.5c0-1.1-0.1-1.9-0.3-2.3c-0.3-0.8-0.9-1.2-1.9-1.2c-0.8,0-1.5,0.4-2.2,1.1l-1-0.9
			c1-0.9,2-1.4,3.1-1.4c1.4,0,2.4,0.5,3,1.6c0.4,0.7,0.6,1.8,0.6,3.2v0.5h1.8V90L-237.3,89.9L-237.3,89.9z M-233.1,82.3
			c-0.2,0-0.4-0.1-0.5-0.2c-0.1-0.1-0.2-0.3-0.2-0.5s0.1-0.4,0.2-0.5c0.1-0.1,0.3-0.2,0.5-0.2s0.4,0.1,0.5,0.2
			c0.1,0.1,0.2,0.3,0.2,0.5s-0.1,0.4-0.2,0.5S-232.9,82.3-233.1,82.3z"/>
		<path class="st4" d="M-223,89.9c-0.8,0-1.5-0.3-2-0.8c-0.5,0.5-1.1,0.8-2,0.8h-1.1v-1.2h1.1c0.9,0,1.4-0.5,1.4-1.4v-6.1l1.3-0.4
			v6.6c0,0.9,0.5,1.4,1.4,1.4h0.8V90L-223,89.9L-223,89.9z"/>
		<path class="st4" d="M-219.6,89.2c-0.5,0.5-1.1,0.7-1.9,0.7h-0.9v-1.2h0.8c0.9,0,1.4-0.5,1.4-1.4v-6.1l1.3-0.4v6.6
			C-218.9,88.1-219.1,88.7-219.6,89.2z"/>
	</g>
</g>
<g id="logo" transform="translate(1 1)">
	<g id="Group_281" transform="translate(6.006 10.644)">
		<g id="Group_280">
			<path id="Path_733" class="st5" d="M69.5,33.6c0,1.7-0.9,3.2-2.3,4c-0.1,0.8-0.3,1.6-0.5,2.3c1-1,2-2,2.8-3.2
				c0.1,2.6-3,3-3.4,5.5c0.9-0.6,2.1-2,3.2-2.8c-0.5,1.7-1.7,3.2-3.4,3.8c-0.2,0.3-0.3,0.8-0.5,1.1c1.4-0.8,2.4-1.9,4-2.5
				c-0.7,1.7-2.3,2.8-4,3.1c-0.4,0.5-0.6,1-0.7,1.6c1.4-0.4,2.6-2,4.5-2.2c-0.6,1.1-1.6,1.9-2.7,2.5c-1.2,0.6-2.8,0.5-3.1,2
				c1.6-0.6,2.9-1.5,5-1.6c-0.9,1.7-2.7,2.4-5.4,2.3c-0.3,0.6-0.9,0.9-1.2,1.6c1.7-0.5,3.4-1.5,5.5-1.1c-0.9,1.7-3.4,2.7-6,2
				c-0.6,0.3-0.9,1-1.3,1.5c1.6-0.3,3.7-0.8,5.3-0.1c-0.8,1.6-4.3,1.8-5.6,0.5c-0.7,0.6-1.3,1.3-2.1,1.8c1.6,0.2,4.2-0.2,5.3,0.9
				c-1.5,1-5,0.8-6.3-0.2c-0.7,0.5-1.5,0.9-2.3,1.2c1.4,0.3,2.8,0.6,4.3,0.6c-1.1,0.4-2.4,0.5-3.6,0.4c-0.6-0.1-1.2-0.5-1.7-0.5
				c-1.4,0-3,1-4.4,1.5c-1.5,0.5-3,1-4.4,1.5c2.9,1.6,6.3,2.8,9.4,4.2c-1.3,0.8-2.9,1.4-4.2,2.2c-2.3-2.3-5.9-3.4-9.1-4.9
				c-3.1,1.4-6.6,2.3-8.6,4.8L27.5,65c3-1.4,6.6-2.6,9.1-3.9c-1.3-0.5-2.6-0.9-3.9-1.4c-1.2-0.4-2.6-1.3-3.8-1.4
				c-1.3-0.1-3.2,1.1-5.2,0.2c1-0.6,3-0.1,3.9-0.7c-0.7-0.2-1.4-0.6-2-1.1c-2,0.9-4.3,1-6.4,0.4c0.7-1.3,3.5-1,5.3-0.9
				c-0.5-0.8-1.5-1.1-2-2c-1.5,1.1-4.5,1.1-5.6-0.4c1.3-0.9,3.6-0.3,5.2,0c-0.4-0.5-0.8-1-1.2-1.5c-2.5,0.7-5.2-0.1-5.9-2
				c1.8,0,3.6,0.4,5.3,1.2c-0.2-0.8-0.9-1-1.1-1.7c-2.7,0.2-4.8-0.7-5.3-2.2c1.7,0.2,3.3,0.8,4.8,1.6c0.1-0.4-0.5-1-0.9-1.4
				c-1.9-0.2-3.7-1.3-4.7-2.9c1.8,0.3,2.9,1.4,4.3,2.2c0.1-0.5-0.3-1.3-0.6-1.7c-1.8-0.2-3.3-1.3-3.9-2.9c1.5,0.5,2.5,1.6,3.8,2.3
				c0.1-0.4-0.2-0.5-0.2-0.7c-1.6-0.8-2.9-2.2-3.6-3.9c1.1,0.9,2.2,1.8,3.2,2.8c-0.3-2.6-3.2-2.7-3.4-5.4c1.1,0.9,1.8,2.1,2.8,3.1
				c0-3-2.8-3.3-2.8-6.3c0.9,1,1.6,2,2.2,3.2c0.6-2.9-2-3.6-1.8-6.4c0.7,1,1.3,2.1,1.7,3.3c0.8-3.5-1.7-4.8-1.7-7.9
				c0.8,1.3,1.4,2.6,1.8,4c1-2.5-1.3-4-0.9-7c0.8,1.2,0.8,3,1.3,4.4c1.5-2.2-0.7-4.3-0.1-7c0.6,1.1,0.9,2.4,1,3.7
				c1.5-1.3,0-3.6,0.5-5.6c0.4,1,0.6,2.1,0.5,3.2c1.4-0.9,0.1-3.8,0.9-5.4c0.3,1,0.4,2.1,0.2,3.2c1.4-0.5,0.7-3.1,1.3-4.4
				c0.3,0.5,0,1.6,0.1,2.3c0.2-0.1,0.4-0.2,0.5-0.4c-0.1,0.1-0.2,0.3-0.2,0.5c0.4,0.1,1.4-0.1,2,0.1c-0.8,1-3.3,0.3-3.3,2.1
				c0.8-0.2,1.7-0.2,2.6-0.4c-0.5,0.7-1.6,0.8-2.8,0.7c-0.4,0.4-0.6,0.9-0.7,1.5c0.8-0.4,1.8-0.6,2.7-0.4c-0.3,1-1.6,1-2.9,1
				c-0.4,0.5-0.7,1.2-0.7,1.8c1-0.3,2-0.6,2.9-1c-0.3,0.8-1.9,1.4-3.2,1.6c-0.4,0.7-0.6,1.5-0.7,2.3c1.1-0.7,1.9-1.8,3.3-2.2
				c-0.7,1.4-2.1,2-3.4,2.7c0,0.7-0.2,1.4-0.2,2.1c0.9-0.9,2-1.6,3.1-2.3c-0.3,1.3-1.9,2.3-3.2,2.9c-0.1,0.6,0.1,1.4-0.1,1.7
				c0.6,0,0.6-0.7,0.9-1c0.7-0.6,1.5-1.1,2.3-1.6c-0.6,1.4-1.7,2.5-3.1,3.1c-0.1,0.9,0,1.7,0.1,2.6c0.7-1.3,1.7-2.5,2.8-3.4
				c-0.2,1.5-1.6,2.8-2.8,3.7c-0.1,0.7,0,1.5,0.2,2.2c0.8-1.3,1.3-2.8,2.6-3.6c-0.2,1.5-1.6,2.8-2.6,3.9c0.1,0.9,0.3,1.7,0.7,2.5
				c0.5-1.6,1.2-3.2,2.2-4.5c0.1,2.3-3.1,4.5-1.5,6.9c0.5-1.6,1.1-3.1,2-4.5c-0.1,1.6-1.1,3.4-1.8,4.9c0.1,0.6,0.4,1.1,0.7,1.6
				c0.4-1.5,0.9-3,1.6-4.4c0,2.1-2.2,4.8-0.4,6.6c0.5-1.6,0.9-3.2,1.1-4.9c0.5,2.7-1.8,5.8,0.5,7.2c0.3-0.7,0.1-1.8,0.4-2.6v-0.7
				c0-0.3,0.2-0.2,0.1,0c0,2.2-0.3,4.7,1.2,5.4c0.3-1,0.1-2.4,0.4-3.4v-0.7c0.3,1,0.1,3.4,0.4,4.8c0.4,0.4,0.7,1,1.3,1.2
				c-0.2-1.6-0.3-3.2-0.2-4.8c1.1,2-0.1,6.3,2.5,6.7c-0.4-1.5-0.7-3.1-0.7-4.7c0.8,1,1.1,3.1,1,4.7c0.5,0.6,1.2,1,2,1.2
				c-0.4-1.1-0.7-2.3-0.9-3.4c1,0.2,1.3,2.1,1.3,3.6c3.3,1,7.1,2.4,11,2.3c3.9,0,8.1-1.8,11.5-2.6c0.1-1.2,0.3-3.2,1.2-3.9
				c0.3,1.3-0.4,2.6-0.7,3.6c0.5,0.1,1.4-0.6,2-0.9c-0.1-1.7,0.2-3.5,1-5c0.1,1.6-0.1,3.2-0.6,4.7c0.7-0.3,1.3-0.8,1.7-1.4
				c0-1.9,0.3-3.8,0.7-5.6c0.2,1.7,0.1,3.4-0.2,5c0.6-0.3,1.1-0.7,1.5-1.2c0.1-1.6,0.2-3.1,0.2-4.7c0-0.1,0-0.2,0.1-0.2v1.4
				c0.1,1,0.2,2,0.2,2.9c0.6-0.3,0.8-1,1.3-1.5c0-0.5,0-1.7,0-2.7c0-0.9,0-2.4,0.1-0.9c0.2,0.9,0.2,2,0.4,2.9
				c2.2-1.6,0.2-4.6,0.4-7.6c0.5,1.6,0.8,3.3,1.1,5c2.2-1.5-0.1-4.2-0.2-6.5c0.8,1.3,1.4,2.8,1.6,4.3c0.6-0.2,0.5-1,0.9-1.5
				c-0.9-1.6-1.5-3.3-2-5c1,1.3,1.7,2.9,2,4.5c1.8-2.3-1.3-4.6-1.6-7.1c1.2,1.3,2,3,2.3,4.8c0.7-0.4,0.6-1.6,0.9-2.5
				c-0.9-1.3-2.2-2.3-2.7-4c1.2,0.8,2.2,2.1,2.6,3.6c1.8-2.6-2.3-3.7-2.6-5.8c1.3,0.3,2.2,2,2.9,3.3c0.1-0.9,0.2-1.7,0.1-2.6
				c-1.3-0.8-2.4-1.8-3.2-3.1c0.4-0.5,1.1,0.7,1.1,0.7c0.2,0.2,0.5,0,0.7,0.1c0.5,0.4,0.8,1.1,1.3,1.6c0.3-0.4-0.2-1,0-1.7
				c-1.3-0.6-2.5-1.6-3.3-2.8c1.1,0.1,2.1,1.4,3.1,2.1c0.3-0.5-0.1-1.4-0.1-2c-1.3-0.9-2.8-1.4-3.6-2.8c1.3,0.4,2.4,1.2,3.3,2.2
				c0-0.9-0.2-1.7-0.6-2.5c-1.2-0.1-2.4-0.6-3.3-1.4c0.9-0.2,2,0.6,2.9,0.7c0.2-0.6-0.4-1.3-0.6-1.8c-1.4,0-2.7,0-3.1-1
				c1-0.2,2-0.1,2.8,0.4c-0.2-0.5-0.4-1-0.7-1.5c-1,0.2-2,0-2.8-0.6c0.7-0.3,1.8,0.1,2.5,0.2c0-0.7-0.6-0.9-0.7-1.5
				c-0.9,0.1-1.8-0.1-2.6-0.5c0.3-0.5,1.3-0.4,1.8-0.2c0.2-0.4-0.5-0.9-0.7-1.2c-0.9,0.2-2.4,0.2-2.7-0.5c0.7,0,1.5,0,2.2,0.1
				c0.2-0.1,0.3-1.1,0.2-1.8c0.3,1.3,0.4,2.7,1.5,3.3c0-0.9,0-1.7,0.1-2.6c0.7,1.5,0,3.8,1.3,4.7c0-1.2,0-2.3,0.2-3.4
				c1,1.7-0.4,4.3,0.7,5.5c0.3-0.9,0.4-2.2,0.6-3.2c0.8,2.1-0.9,4.2,0.5,5.8c0.4-1.2,0.5-2.8,1.1-3.8c0.7,2.9-1.6,4.9-0.1,7.2
				c0.5-1.4,0.7-3.1,1.2-4.4c0.7,3-1.6,4.4-0.9,7.1c0.8-1.3,1.1-3,2-4.2c0.1,2.9-2.2,4.4-1.8,8c0.8-1,1.1-2.4,1.8-3.4
				c0.4,2.7-2.2,3.6-2,6.6C68.1,35.9,68.6,34.6,69.5,33.6z"/>
			<path id="Path_734" class="st5" d="M58,12.7c1,0.5,1.8,1.3,2.5,2.2C59.8,14.5,58.4,13.8,58,12.7z"/>
			<path id="Path_735" class="st5" d="M23.9,14.2c0,1-1.6,1.4-2.1,2.2C22.2,15.5,23,14.7,23.9,14.2z"/>
			<path id="Path_736" class="st5" d="M21.4,16.9c0.8-0.1,1.6-0.1,2.3,0c-0.8,0.8-2.6,0.2-3.3,0.9c0.5-0.8,0.7-1.7,0.7-2.6
				C21.3,15.6,21.3,16.7,21.4,16.9z"/>
			<path id="Path_737" class="st5" d="M20.5,17.7c0,0-0.1,0.1-0.1,0.1C20.4,17.8,20.4,17.8,20.5,17.7z"/>
		</g>
	</g>
	<path id="Path_738" class="st5" d="M49.4,34.9l-2,1.4l-2-1.4h1.5c0,0-0.5-1.1,0.1-1.2c0,0-0.6-1-0.2-1.1c0,0-0.7-0.8,0.1-1.2
		c0,0-0.5-0.9,0-1.2c0,0-0.6-1,0-1.2c0,0-0.6-1,0-1.2V25c0,0-0.8-0.5-0.5,2.1l-0.2,0.2l0.1,0.7c0,0-0.7-0.3-0.4-0.8l-0.5,0.2
		c-0.1-0.4-0.1-0.7,0-1.1c0,0-0.1-0.2-0.3,0.2c-0.5-0.4-0.5-1.1-0.1-1.5c0.1-0.1,0.1-0.1,0.2-0.2v-0.2c0,0-0.4-0.5,0.4-0.9
		c0,0,0.5-0.8-0.4-0.8c0,0-0.2,0.9-0.5,0.9c0,0,0,0.7-0.4,0.7c0,0,0,0.7-0.4,0.9c0,0,0.1,0.5-0.1,0.6c0,0,0,0.4,0.1,0.5
		c-0.7-0.6-0.9-1.5-0.5-2.4l0.7-1.4c0,0,0.2-0.4-0.5-0.3l0,0.5c0,0-0.2,0.3-0.3-0.1c0,0-0.4-0.3-0.4,0.7l0.1,0.6
		c0,0-0.2,0.3-0.3-0.2c0,0-0.7,0,0,1.4c-0.8-0.6-1-1.7-0.5-2.5l1.7-1.9c0,0-0.1-0.8-1.3-0.2c-0.3,0.2-0.5,0.3-0.7,0.6
		c0.4-1,1.2-1.8,2.3-2h1.2c0,0,0.4-1-1.3-0.5c0,0-0.3-1.3,1.5-1l1.2,1l0.1,0v-1.3l0.7-0.7l0.8,0.7v1.3l1.2-1c0,0,1.6-0.4,1.7,0.9
		c0,0-1.8-0.4-1.5,0.6H51c1,0.1,1.9,0.9,2.2,1.9c0,0-1.2-1.2-2.2-0.5l2.1,2.1c0.5,0.8,0.3,1.8-0.5,2.4c0,0,0.6-1.2-0.1-1.5
		c0,0-0.1,0-0.3,0.3c0,0,0.2-1.1-0.2-1.3c-0.2-0.1-0.4,0-0.5,0.2c0-0.3-0.1-0.5-0.4-0.5c-0.1,0-0.2,0-0.3,0c0,0-0.1,0.4,0.7,1.5
		c0,0,0.7,1.7-0.4,2.5c0,0,0.1-1.1-0.5-1.4c0.1-0.3,0-0.6-0.2-0.8c0,0-0.1,0-0.1,0c0,0,0.2-0.3-0.3-0.6c0,0-0.2-0.1-0.2-0.6
		c0,0-0.6-0.5-0.6,0.4c0,0,0.9,0.7,0.4,1.1c0,0,0.9,0.9,0.3,1.4c0,0,0.1,0.8-0.3,0.5c0,0-0.3-0.5-0.2,0.5c0,0,0.3,0.6-0.3,0.4
		c0,0.3-0.2,0.6-0.4,0.8v-0.8h-0.2v-1.7c0-0.2-0.1-0.5-0.4-0.5c-0.1,0-0.1,0-0.2,0v2.7c0,0,0.5,0.3,0,1.2c0,0,0.6,0.1,0,1.2
		c0,0,0.6,0.1,0,1.2c0,0,0.7,0,0.1,1.3c0,0,0.5,0-0.2,1.1c0,0,0.6-0.1,0.1,1.2L49.4,34.9z"/>
	<path id="Path_739" class="st5" d="M53.7,41L53,41.6c-1.2,0.5-2.4-0.7-2.4-0.7c-0.4-0.3,0.3-0.6,0.3-0.6c1.1-0.4,0.2-1,0.2-1
		c-1-0.2-0.7,0.6-0.7,0.6c0.2,0.6-0.3,0.5-0.3,0.5l-1.9-1.8c1.7-1.7,3.5-3.1,5.5-4.3c0,0,1.7-1.3,6.7-1.5c-2.8-1-5.9-0.6-8.3,1.1
		c-1.7,1.1-3.3,2.3-4.7,3.7l-0.1,0.1l-0.1-0.1c-1.4-1.4-3-2.7-4.7-3.7c-2.4-1.7-5.5-2.1-8.3-1.1c4.9,0.2,6.7,1.5,6.7,1.5
		c2,1.2,3.9,2.6,5.5,4.3l-1.9,1.8c0,0-0.6,0.1-0.3-0.5c0,0,0.3-0.8-0.7-0.6c0,0-0.9,0.6,0.2,1c0,0,0.7,0.2,0.3,0.6
		c0,0-1.2,1.1-2.4,0.7L40.9,41c-0.4-0.2-0.9,0-1.1,0.4c0,0.1-0.1,0.2-0.1,0.3c0,0,0.8,2.1,3.5,1.1c0.7-0.3,1.3-0.7,1.8-1.3l0.4,0.3
		c0,0,0,0.8,0.6,0.8c0.3-0.1,0.5-0.4,0.4-0.7c-0.1-0.3-0.4-0.5-0.8-0.5l-0.3-0.3c0,0,1.2-1.1,1.9-1.8c0.6,0.7,1.9,1.8,1.9,1.8
		l-0.3,0.3c-0.3,0-0.7,0.2-0.8,0.5c0,0.3,0.1,0.6,0.4,0.7c0.7,0,0.6-0.8,0.6-0.8l0.4-0.3c0.5,0.6,1.1,1,1.8,1.3
		c2.7,1,3.5-1.1,3.5-1.1c0-0.5-0.5-0.8-0.9-0.7C53.9,41,53.8,41,53.7,41z"/>
	<path id="Path_740" class="st5" d="M55,43.9h5.2c0,0-1.3,11.1-13.1,11.1c0,0-9.9,0.1-12.4-11.1h5.1c1.4,3,4.4,5,7.7,5.2
		C47.4,49.1,53,49.1,55,43.9z"/>
	<path id="Path_741" class="st5" d="M61.5,43.6h6c0,0-1.7,16.3-19.3,17.9c0,0-17,1.5-20.9-17.5h5.9c0,0,2.1,11.8,14.2,11.8
		C47.4,55.7,58.6,56.4,61.5,43.6z"/>
	<path id="Path_4323" class="st6" d="M47,12.7c18.9,0,34.3,15.4,34.3,34.3S65.9,81.3,47,81.3S12.7,65.9,12.7,47c0,0,0,0,0,0
		C12.7,28.1,28.1,12.7,47,12.7z"/>
	<g id="Group_283" transform="translate(16.978 32.879)">
		<path id="Path_742" class="st7" d="M39.3,13.8c0,0-0.4,0.6-0.6-0.3c0,0,0.8-0.7,1.4,0.9c0,0,0.1,1.2-0.6,1.2
			c0.2-0.4,0.3-0.9,0.2-1.4C39.7,14.2,39.8,13.7,39.3,13.8z"/>
		<path id="Path_743" class="st7" d="M38.3,14.6c0,0.5,0.2,1.1,0.6,1.4c0.2,0.6,0,1.4-0.6,1.7c0,0-0.4,0.1,0-0.5
			c0,0,0.6-0.5-0.1-1.7c0,0-0.6-0.7-0.3-1C37.9,14.5,38.3,14.2,38.3,14.6z"/>
		<path id="Path_744" class="st7" d="M36.7,16.9c-0.7-0.3-1.3-0.9-1.6-1.6c1,0.2,1.8,0.8,2.3,1.6c0,0,0.4,1.3-0.7,1.6
			c0.1-0.3,0.2-0.6,0.3-0.8c0,0,0.2-0.7-0.1-1c-0.3-0.4-0.7-0.7-1.2-0.8C35.8,15.8,36.4,16.5,36.7,16.9z"/>
		<path id="Path_745" class="st7" d="M46.9,13.9c-0.9,0-1.7-0.5-2.3-1.2c1.1-0.1,2.2,0.2,3,1c0,0,0.9,1.2-0.2,2
			c-0.1-0.3-0.1-0.7,0-1c0,0,0-0.8-0.5-1c-0.5-0.3-1-0.5-1.5-0.5C45.4,13.1,46.4,13.7,46.9,13.9z"/>
		<path id="Path_746" class="st7" d="M31.3,19.4c-0.4-0.7-0.5-1.5-0.3-2.3c0.7,0.7,1,1.7,0.9,2.7c0,0-0.4,1.3-1.5,0.9
			c0,0,0.1-0.1,0.7-0.5c0,0,0.6-0.4,0.5-0.9c0-0.5-0.2-1-0.4-1.4C31.1,17.9,31.2,18.9,31.3,19.4z"/>
		<path id="Path_747" class="st7" d="M37.8,24.1c-0.6-0.5-1-1.3-1-2.1c0.9,0.5,1.4,1.4,1.6,2.3c0,0,0,1.4-1.2,1.4
			c0.1-0.3,0.3-0.5,0.6-0.8c0,0,0.4-0.6,0.2-1c-0.2-0.5-0.4-0.9-0.8-1.2C37.2,22.7,37.6,23.6,37.8,24.1z"/>
		<path id="Path_748" class="st7" d="M22.8,24c0-0.8,0.4-1.6,1-2.1c0.2,1-0.1,2-0.7,2.7c0,0-1.1,0.9-1.9,0c0.3-0.1,0.6-0.1,1-0.1
			c0,0,0.7-0.1,0.9-0.5c0.2-0.4,0.4-0.9,0.4-1.4C23.5,22.6,23,23.5,22.8,24z"/>
		<path id="Path_749" class="st7" d="M27.2,19c-0.2-0.8-0.1-1.6,0.4-2.2c0.4,0.9,0.4,1.9,0,2.8c0,0-0.8,1.1-1.7,0.4
			c0.3-0.1,0.6-0.2,0.9-0.3c0,0,0.7-0.2,0.7-0.7c0.1-0.5,0.1-1,0-1.4C27.5,17.6,27.3,18.5,27.2,19z"/>
		<path id="Path_750" class="st7" d="M36.1,17.3c0,0-0.3-0.1-0.1,0.8c0,0,0.5,1.7-1,2c0,0-0.3,0.1,0.1-0.4c0.5-0.4,0.7-1,0.6-1.6
			c0,0-0.3-1.1,0.2-1.2C35.9,16.9,36.2,16.8,36.1,17.3z"/>
		<path id="Path_751" class="st7" d="M34.5,18.3c-0.3,0-0.5-0.1-0.8-0.2l-0.2,0.4c0.3,0.1,0.2,0.5,0.2,0.5c0,0.9,0.8,0.6,0.8,0.6
			C35.1,18.8,34.5,18.3,34.5,18.3z M34.4,19.1c0,0-0.4,0.2-0.5-0.1c0-0.2,0-0.3,0-0.5C33.9,18.5,34.7,18.6,34.4,19.1L34.4,19.1z"/>
		<path id="Path_752" class="st7" d="M30,19.5c-0.2-0.7-0.2-1.4,0-2.1c0.5,0.7,0.7,1.6,0.6,2.5c0,0-0.2,0.9-0.9,0.7
			c0,0-0.5,0.1-0.6-0.6c0,0-0.6,1.7-1.7,0.7c0,0,1.3,0.1,1.5-1l0.3-0.7c0.1,0.3,0.1,0.6,0.1,0.9c0,0,0.4,0.7,1,0
			c0.1-0.6,0-1.2-0.3-1.7C29.9,18.6,29.9,19,30,19.5z"/>
		<g id="Group_282" transform="translate(7.311 0.887)">
			<path id="Path_753" class="st7" d="M16.7,18.4L16.7,18.4z"/>
			<path id="Path_754" class="st7" d="M19,18.1c-0.2-0.3-0.4-0.6-0.6-0.9c-0.4-0.6-1.3,0.4-1.3,0.4c-0.7-0.1-0.5-0.6-0.5-0.6
				l1.4-1.9l-0.4,0.1l-1.3,1.7c-0.7,0.2-0.8-0.6-0.8-0.6c0.3-0.2,0.1-0.4,0.1-0.4c-0.4,0.1-0.8,0-1-0.2c-0.3-0.4,0.3-0.8,0.3-0.8
				c0.5-0.6-0.2-0.6-0.2-0.6l-1.5,0C13,13.6,13.8,13,13.8,13c0.5-0.2,1.1,0,1.4,0.5c0.5,0.6,0.6,0.4,0.6,0.4l-0.9-1.1
				c-1.1-0.5-1.9,0.7-1.9,0.7c-0.5,0.8,0,1,0,1h1.5c0.4,0.2-0.2,0.7-0.2,0.7c-0.2,1,1,1.1,1,1.1c-0.1,1,1,0.9,1,0.9
				c0,0.4,0.2,0.7,0.6,0.8c0,0.2-0.1,0.3-0.1,0.5l0.3-0.4c1.2,0,1.4,0.2,1.4,0.2C19.3,18.4,19,18.1,19,18.1z M17.5,17.7
				c0-0.2,0.2-0.3,0.4-0.4c0.5,0,0.5,0.4,0.5,0.4H17.5z"/>
		</g>
		<path id="Path_755" class="st7" d="M23.3,14.3V14h-0.5v0.4l0.3,0.1v0.3l0.4,0.1v-0.3L23.3,14.3z"/>
		<path id="Path_756" class="st7" d="M46.5,16.1c0.6-0.9-0.2-1-0.2-1l-0.1,0.4c-0.4,0.3-0.3-0.7-0.3-0.7c-0.2-0.8-1-1.3-1.8-1.2
			c0,0.7,1.2,1.4,1.2,1.4c0-0.2-0.7-0.9-0.7-0.9c0.8,0.2,1,0.6,1,0.6l0,0.5c-0.1,0.7,0.4,0.8,0.4,0.8c0.2,0.5,0,1.1-0.4,1.5l-0.5,0
			l0,0.2c0.2,0.4,0,0.9-0.4,1c-0.1,0-0.1,0-0.2,0l-1.8-1.6l-0.1,0.3l1.7,1.6c0.1,0.9-0.9,0.9-0.9,0.9l-1.3-1.4l0.2-0.7l0.7,0.9
			c-0.3-0.7-0.9-1.7-0.9-1.7c-0.1,1-0.3,1.9-0.8,2.7c0.3-0.2,0.6-0.5,0.8-0.9l1.2,1.3c0.3,0.5-0.6,1.1-0.6,1.1l-0.4-0.2
			c-0.6-0.6-0.8,0.1-0.8,0.1l0,1.7l-0.1,0.2c-1.5-0.1-1.2-1.6-1.2-1.6c1-1,1-1.3,1-1.3L40,21.3c-0.3,0.7,0,1.5,0.6,1.9
			c0.7,0.7,1.2,0.2,1.2,0.2l0-1.3c-0.1-1,0.3-0.8,0.3-0.8c0.4,0.5,0.6,0.5,0.6,0.5c1.1,0,1-1.3,1-1.3c0.5,0.1,1-0.3,1.1-0.9
			c0-0.1,0-0.3,0-0.4c0.6,0.2,0.8-0.7,0.8-0.7c0.3,0.6,0.7,0.3,0.7,0.3c0.2-0.4,0.1-0.8-0.2-1.1C46.7,17.5,46.5,16.1,46.5,16.1z
			 M45.7,18c0.1,0,0.3,0.1,0.3,0.2c0,0,0,0.1,0,0.1C46,18.4,45.7,18.6,45.7,18L45.7,18z"/>
		<path id="Path_757" class="st7" d="M36.4,24.6c0,0-1.1-1.2-0.7-2.3c0.8,0.5,1.3,1.3,1.4,2.3c0,0,0.4,1.6-1.3,1.1
			c-0.4,0.5-1,0.8-1.7,0.7c-0.3,0.1-0.5,0.4-0.6,0.8c0,0-0.2,0.9-1.6,0.6c0,0-0.5-0.1,0.6-0.3c0.5-0.3,0.9-0.7,1.1-1.3
			c0.3-0.2,0.6-0.3,0.9-0.3c0,0,0.8-0.3,1-0.5c0,0-0.1-0.2-0.5-0.1c0,0-0.1-0.5,0.6-0.7c0,0,0.4-0.1,0.4,0.3l0,0.4c0,0,1,0.1,0.8-1
			c-0.2-0.5-0.4-0.9-0.8-1.3L36.4,24.6z"/>
		<path id="Path_758" class="st7" d="M31.7,25c0,0,0.8,0.4,0.1,1.6c0,0-1.2,0.8-1.9,0c0,0,0-0.2-0.3,0c-0.6,0.5-1.5,0.4-1.9-0.2
			c-0.1-0.2-0.2-0.4-0.1-0.6c0,0-0.3-0.4-0.7,0.2L26,26.8c0,0-0.7,0.4-0.7-0.8c0,0-0.4-1.9,1.2-2c0.4,0.1,0.9,0.2,1.3,0.2
			c0,0-0.4,0.3-1.5,0.1c0,0-0.7-0.1-0.6,1.1c0,0,0,1,0.5,1l1.2-1.2c0,0,0.6-0.4,0.6,0.5c0,0.3,0.2,0.7,0.5,0.8c0,0,1.3,0.3,1.6-0.6
			l0.3,0.5c0,0,0.9,0.3,1.4-0.1c0,0,0.3-0.3-0.1-0.5C31.6,25.8,31.1,25.4,31.7,25z"/>
		<path id="Path_759" class="st7" d="M21.4,23.2c0,0,0.6-2,1.2-2c0.2,1.1-0.1,2.2-1,2.9c0,0-0.4,0.3-1.2-0.2l-1.8-1.5V22l-0.5-0.1
			l-0.7-0.5v-0.3c0,0-1.4,0.8-1.8-1c0,0,0.7,1.1,1.6,0.8v-0.2c0,0-0.4-0.3-0.1-0.5c0,0,0.5-0.1,0.5,0.1l0,0.8l0.6,0.5h0.2v-0.3
			l-0.1,0l0.1-0.2l0.6,0.1l0.1,0.7l-0.2,0.1l0,0.3l0.4,0.4l0.3-0.2l-0.1,0.3l0.3,0.3l0.4-0.1l-0.2,0.2l0.2,0.1l0.4-0.1l-0.3,0.3
			c0,0,0.7,0.8,1.3,0.1c0.3-0.5,0.4-1.1,0.4-1.7C22.3,21.8,21.6,23.2,21.4,23.2z"/>
		<path id="Path_760" class="st7" d="M16,18.5c-0.1-0.5,0.2-1,0.7-1.1c0.1,0,0.1,0,0.2,0h0.4c0,0,0.5,1.5-0.5,1.9c0,0-1.3,0.7-2-1.1
			V18c0.4,0.4,0.9,0.8,1.3,1.1c0.4,0.1,0.8-0.2,0.9-0.6c0-0.1,0-0.1,0-0.2c0,0,0.2-0.7-0.3-0.8c0,0-0.3-0.1-0.2,0.7
			C16.4,18.5,16.2,18.6,16,18.5z"/>
		<path id="Path_761" class="st7" d="M16.2,17h-0.5l-0.2,0.5h-0.2l-0.6-0.8v-0.5l0.5-0.5c0,0,0.4-0.3-0.5-0.6c0,0-1.2-0.2-1.2-0.2
			c-0.2-0.3-0.1-0.7,0.2-1c0,0,1-1,1.6,0.1c0.1,0.4,0.4,0.8,0.8,1c-0.3-0.4-0.5-0.8-0.6-1.3c0,0-0.7-1.2-2,0c0,0-0.8,0.6-0.4,1.3
			c0,0.1,0.4,0.3,1.4,0.3c0,0,0.9,0.2,0.1,0.7c0,0-0.4,0.1-0.3,0.8l0.9,1.1c0,0,0.5,0.4,1.2-0.6L16.2,17z"/>
		<path id="Path_762" class="st7" d="M36.9,14.1h0.6v0.5L37,14.5L36.9,14.1z"/>
		<path id="Path_763" class="st7" d="M33.4,17.4v-0.3l0.4,0.1v0.4l-0.4-0.1l-0.1,0.4l-0.4-0.2c0-0.1,0-0.2,0-0.4
			C33.1,17.3,33.2,17.3,33.4,17.4z"/>
		<path id="Path_764" class="st7" d="M40.7,19.8v-0.3h0.5v0.4h-0.5v0.4h-0.5l0.1-0.4L40.7,19.8z"/>
		<path id="Path_765" class="st7" d="M31.2,27.2l0.4,0.4L31.2,28L31,27.7L31.2,27.2z"/>
		<path id="Path_766" class="st7" d="M30,27.5l0.4,0.3L30,28.2l-0.3-0.4l-0.3,0.4L29,27.9l0.4-0.4l0.3,0.2L30,27.5z"/>
		<path id="Path_767" class="st7" d="M27.7,23.6l0.3-0.2l0.3,0.4l-0.4,0.3l-0.3-0.3L27.3,24L27,23.5l0.4-0.3L27.7,23.6z"/>
		<path id="Path_768" class="st7" d="M26,17l0.1,0.5h-0.5v-0.4L26,17z"/>
		<path id="Path_769" class="st7" d="M22,17.9v0.4h-0.4v-0.4h-0.4l-0.1-0.4h0.5l0,0.4L22,17.9z"/>
		<path id="Path_770" class="st7" d="M14.5,17.9c0,0,0.1,0.4,0,0.4s-0.6,0-0.6,0l0.1-0.5h-0.3v-0.5l0.5,0.1l0,0.5L14.5,17.9z"/>
		<path id="Path_771" class="st7" d="M16.5,14.6l-0.1,0.5L16.1,15v-0.5l-0.3-0.2v-0.4l0.6,0.1l-0.2,0.5L16.5,14.6z"/>
	</g>
</g>
</svg>
