<?xml version="1.0" encoding="utf-8"?>
<!-- Generator: Adobe Illustrator 25.3.1, SVG Export Plug-In . SVG Version: 6.00 Build 0)  -->
<svg version="1.1" id="Layer_1" xmlns="http://www.w3.org/2000/svg" xmlns:xlink="http://www.w3.org/1999/xlink" x="0px" y="0px"
	 viewBox="0 0 90 90" style="enable-background:new 0 0 90 90;" xml:space="preserve">
<style type="text/css">
	.st0{fill:#CAA738;}
	.st1{fill:#006838;}
	.st2{fill:#FFFFFF;}
</style>
<g>
	<g>
		<path class="st0" d="M52.4,12.4c-6.8,3.4-9.5,11.8-6.1,18.6s11.8,9.5,18.5,6.1c6.8-3.4,9.5-11.8,6.1-18.6
			C67.6,11.7,59.2,9,52.4,12.4z M63.4,34.1c-5.1,2.6-11.4,0.6-14.1-4.6c-2.6-5.2-0.5-11.4,4.6-14s11.4-0.6,14,4.6
			C70.6,25.2,68.6,31.5,63.4,34.1z"/>
		<path class="st0" d="M80.7,32.5c0.3-0.9,0.6-1.7,0.8-2.6c0.2-0.9,0.3-1.8,0.4-2.6l-4.3-1.9l-0.4-4.6l3.9-2.6
			c-0.5-1.7-1.2-3.4-2.1-5l-4.6,1l-3.1-3.5l1.6-4.4c-1.4-1-2.9-2-4.5-2.7L65.2,7l-4.5-1.1l-1.3-4.5c-1.8-0.1-3.6,0.1-5.4,0.5
			l-0.5,4.7l-4.3,1.8l-3.7-2.9c-1.5,1-2.8,2.2-4.1,3.5l2.3,4.1l-2.4,4L36.6,17c-0.3,0.9-0.6,1.8-0.8,2.7c-0.2,0.9-0.3,1.7-0.4,2.5
			l4.3,1.9l0.4,4.6l-3.9,2.6c0.5,1.7,1.2,3.4,2.1,5l4.6-1l3.1,3.5l-1.6,4.4c1.4,1.1,3,2,4.6,2.8l3.1-3.5l4.5,1l1.3,4.5
			c1.8,0,3.6-0.1,5.4-0.5l0.5-4.7l4.3-1.8l3.7,2.9c1.5-1,2.8-2.2,4.1-3.6l-2.4-4l2.4-4L80.7,32.5z M65.6,38.4
			c-7.5,3.8-16.7,0.8-20.6-6.7c-3.8-7.6-0.8-16.8,6.7-20.6s16.8-0.8,20.6,6.7C76.2,25.4,73.1,34.6,65.6,38.4z"/>
	</g>
	<polygon class="st1" points="73.4,88.6 73.4,76.9 79.1,75 79.1,28.7 53.8,28.7 53.8,22.4 35.5,19.4 35.5,87.3 66.1,78.6 	"/>
	<polygon class="st2" points="43.8,49 43.8,54 70.6,51.5 70.6,48.1 	"/>
	<polygon class="st2" points="43.8,57.7 43.8,62.7 70.6,60.2 70.6,56.8 	"/>
	<polygon class="st2" points="43.8,67.9 43.8,72.9 70.6,70.4 70.6,67 	"/>
	<polygon class="st2" points="33,26.5 19.8,26.5 33,85.4 	"/>
	<polygon class="st2" points="8.1,35 19.8,35 30.3,85.4 	"/>
</g>
</svg>
